<svg xmlns="http://www.w3.org/2000/svg" viewBox="0 0 47.01 36.85"><defs><style>.cls-1{fill:#009fdf;}</style></defs><g id="Vrstva_2" data-name="Vrstva 2"><g id="Vrstva_1-2" data-name="Vrstva 1"><g id="zavorky_fim_mini"><rect class="cls-1" x="15.2" y="20.64" width="16.61" height="3.44"/><rect class="cls-1" x="15.2" y="12.78" width="16.61" height="3.44"/></g><g id="zavorky_fim_mini-2" data-name="zavorky_fim_mini"><polygon points="5.08 23.51 5.08 31.77 10.17 36.85 16.36 36.85 14.51 31.77 10.17 31.77 10.17 23.51 5.08 18.43 10.17 13.34 10.17 5.08 14.51 5.08 16.36 0 10.17 0 5.08 5.08 5.08 13.34 0 18.43 5.08 23.51"/><polygon points="36.85 31.77 32.5 31.77 30.65 36.85 36.85 36.85 41.93 31.77 41.93 23.51 47.01 18.43 41.93 13.34 41.93 5.08 36.85 0 30.65 0 32.5 5.08 36.85 5.08 36.85 13.34 41.93 18.43 36.85 23.51 36.85 31.77"/></g></g></g></svg>