<svg id="Vrstva_1" data-name="Vrstva 1" xmlns="http://www.w3.org/2000/svg" viewBox="0 0 432 360"><defs><style>.cls-1{fill:#6366f1;}</style></defs><path class="cls-1" d="M412.59,360H497a7,7,0,0,1,7,7v58a7,7,0,0,1-7,7H403a7,7,0,0,0-7,7V569a7,7,0,0,1-7,7H331a7,7,0,0,1-7-7V396A180,180,0,0,1,493.36,216.31a10,10,0,0,1,10.64,10v52.13a10,10,0,0,1-9.2,10,108,108,0,0,0-88.58,61.69A7,7,0,0,0,412.59,360Z" transform="translate(-72 -216)"/><path class="cls-1" d="M252,226V569a7,7,0,0,1-7,7H187a7,7,0,0,1-7-7V439a7,7,0,0,0-7-7H82a10,10,0,0,1-10-10V370a10,10,0,0,1,10-10h91a7,7,0,0,0,7-7V226a10,10,0,0,1,10-10h52A10,10,0,0,1,252,226Z" transform="translate(-72 -216)"/></svg>