<?xml version="1.0" standalone="no"?>
<!DOCTYPE svg PUBLIC "-//W3C//DTD SVG 20010904//EN"
 "http://www.w3.org/TR/2001/REC-SVG-20010904/DTD/svg10.dtd">
<svg version="1.0" xmlns="http://www.w3.org/2000/svg"
 width="864.000000pt" height="864.000000pt" viewBox="0 0 864.000000 864.000000"
 preserveAspectRatio="xMidYMid meet">
<metadata>
Created by potrace 1.14, written by Peter Selinger 2001-2017
</metadata>
<g transform="translate(0.000000,864.000000) scale(0.100000,-0.100000)"
fill="#000000" stroke="none">
<path d="M2283 7905 c-36 -15 -84 -59 -101 -91 -14 -26 -23 -91 -22 -154 0
-25 0 -54 0 -65 -1 -11 -1 -27 -1 -35 1 -8 1 -28 0 -45 0 -16 0 -36 0 -42 2
-38 2 -134 0 -205 -1 -25 2 -51 6 -57 3 -6 1 -11 -5 -11 -6 0 -8 -5 -5 -10 8
-14 10 -108 3 -116 -4 -3 -2 -18 2 -34 4 -16 6 -31 3 -34 -8 -8 -7 -102 2
-115 3 -6 1 -11 -5 -11 -6 0 -8 -5 -5 -11 4 -6 7 -34 6 -62 -3 -120 -2 -149 3
-154 2 -3 1 -15 -3 -27 -5 -11 -5 -30 -1 -41 4 -11 4 -32 0 -46 -4 -15 -4 -32
0 -39 5 -7 5 -23 0 -34 -4 -12 -4 -30 0 -42 5 -11 5 -27 0 -34 -4 -7 -4 -26 0
-41 5 -17 5 -31 -1 -35 -5 -3 -6 -10 -3 -16 4 -6 6 -31 5 -57 -3 -113 -3 -140
4 -150 3 -6 1 -11 -5 -11 -6 0 -8 -5 -5 -11 4 -6 7 -34 6 -62 -3 -122 -2 -147
3 -156 4 -5 2 -12 -3 -16 -6 -3 -7 -15 -2 -28 4 -12 5 -33 1 -47 -4 -14 -3
-36 0 -50 4 -14 4 -34 0 -45 -4 -11 -4 -29 0 -40 4 -11 4 -32 0 -46 -4 -15 -4
-32 0 -39 5 -7 5 -23 0 -34 -4 -12 -4 -30 -1 -41 4 -11 6 -31 4 -45 -6 -47 -5
-118 2 -129 3 -6 1 -11 -5 -11 -6 0 -8 -5 -4 -12 16 -26 3 -125 -22 -168 -17
-28 -86 -66 -103 -56 -4 3 -13 1 -21 -4 -7 -4 -24 -4 -36 0 -13 5 -26 6 -28 1
-4 -6 -51 -7 -51 -1 0 1 -21 2 -48 3 -26 1 -47 0 -47 -3 0 -7 -89 -4 -97 3 -3
4 -13 2 -22 -3 -10 -5 -23 -5 -30 -1 -7 5 -30 5 -51 1 -21 -4 -44 -4 -51 1 -7
4 -21 3 -30 -2 -10 -5 -20 -5 -23 -1 -3 5 -26 6 -50 2 -25 -4 -51 -3 -58 1 -6
4 -20 3 -29 -2 -10 -5 -20 -5 -23 -1 -3 5 -26 6 -50 2 -25 -4 -51 -3 -58 1 -6
4 -20 3 -29 -2 -10 -5 -20 -5 -23 -1 -3 5 -26 6 -50 2 -25 -4 -51 -3 -58 1 -6
4 -20 3 -29 -2 -10 -5 -20 -5 -23 -1 -3 5 -28 6 -56 2 -28 -4 -53 -3 -56 2 -3
4 -13 4 -23 -2 -10 -5 -21 -7 -24 -3 -8 7 -97 10 -97 3 0 -7 -89 -4 -97 3 -3
4 -13 2 -23 -3 -10 -5 -20 -7 -23 -3 -8 7 -97 10 -97 3 0 -7 -89 -4 -97 3 -3
4 -13 2 -22 -3 -10 -5 -23 -5 -30 -1 -7 5 -30 5 -51 1 -21 -4 -44 -4 -51 1 -7
4 -23 3 -36 -2 -13 -5 -23 -5 -23 0 0 12 -76 -6 -108 -26 -41 -26 -81 -74 -93
-113 -7 -23 -9 -230 -7 -600 3 -481 5 -569 18 -590 36 -59 94 -100 146 -105
18 -2 37 -6 42 -9 4 -2 14 -1 22 4 7 4 24 4 36 0 13 -5 26 -6 28 -1 4 6 51 7
51 1 0 -1 21 -2 48 -3 26 -1 47 0 47 3 0 7 89 4 97 -3 3 -4 13 -2 23 3 10 5
20 7 23 3 8 -7 97 -10 97 -3 0 7 89 4 97 -3 3 -4 13 -2 23 3 10 5 20 7 23 3 8
-7 97 -10 97 -3 0 7 89 4 97 -3 3 -4 13 -2 23 3 10 5 20 7 23 3 8 -7 97 -10
97 -3 0 7 89 4 97 -3 3 -4 13 -2 23 3 10 5 20 7 23 3 8 -7 97 -10 97 -3 0 7
89 4 97 -3 3 -4 13 -2 23 3 10 5 20 7 23 3 8 -7 97 -10 97 -3 0 7 89 4 97 -3
3 -4 14 -2 24 4 11 5 19 6 19 2 0 -4 23 -8 50 -8 28 0 50 2 50 5 0 7 77 3 89
-5 5 -3 12 -1 16 5 4 6 11 8 16 4 5 -3 26 -8 47 -10 39 -5 76 -33 96 -74 15
-29 18 -88 15 -252 -1 -25 2 -51 6 -57 3 -6 1 -11 -5 -11 -6 0 -8 -5 -5 -11 4
-6 7 -34 6 -62 -3 -122 -2 -147 3 -156 4 -5 2 -12 -3 -16 -6 -3 -7 -15 -2 -28
4 -12 5 -33 1 -47 -4 -14 -3 -37 1 -52 4 -16 3 -30 -2 -34 -5 -3 -6 -10 -3
-16 4 -6 6 -31 5 -57 -3 -113 -3 -140 4 -150 3 -6 1 -11 -5 -11 -6 0 -8 -5 -5
-11 4 -6 7 -34 6 -62 -3 -122 -2 -147 3 -156 4 -5 2 -12 -3 -16 -6 -3 -7 -15
-2 -28 4 -12 5 -33 1 -47 -4 -14 -3 -37 1 -52 4 -16 3 -30 -2 -34 -5 -3 -6
-10 -3 -16 4 -6 6 -31 5 -57 -3 -113 -3 -140 4 -150 3 -6 1 -11 -5 -11 -6 0
-8 -5 -5 -11 4 -6 7 -34 6 -62 -3 -122 -2 -147 3 -156 4 -5 2 -12 -3 -16 -6
-3 -7 -15 -2 -28 4 -12 5 -33 1 -47 -4 -14 -3 -37 1 -52 4 -16 3 -30 -2 -34
-5 -3 -6 -10 -3 -16 4 -6 6 -31 5 -57 -3 -113 -3 -140 4 -150 3 -6 1 -11 -5
-11 -6 0 -8 -5 -5 -11 4 -6 7 -34 6 -62 -3 -122 -2 -147 3 -156 4 -5 2 -12 -3
-16 -7 -3 -7 -15 -1 -29 5 -13 6 -26 3 -29 -6 -6 -5 -44 0 -125 5 -62 39 -106
97 -123 23 -6 248 -9 647 -7 l611 3 27 25 c53 50 56 66 56 305 0 50 0 99 0
110 0 11 0 52 0 90 1 39 1 77 0 85 0 8 0 65 0 125 0 61 0 116 0 123 0 6 0 32
0 57 0 48 -1 67 -2 88 -1 12 0 77 2 277 0 58 0 112 0 120 0 8 0 80 0 160 0 80
0 152 0 160 0 8 0 47 0 85 1 39 1 77 0 85 0 8 0 65 0 125 0 61 0 116 0 123 0
6 0 32 0 57 0 48 -1 67 -2 88 -1 12 0 77 2 277 0 58 0 112 0 120 0 8 0 47 0
85 1 39 1 77 0 85 0 8 0 65 0 125 0 61 0 116 0 123 0 6 0 32 0 57 0 48 -1 67
-2 88 -1 12 0 77 2 277 0 58 0 112 0 120 0 8 0 47 0 85 1 39 1 77 0 85 0 8 0
65 0 125 0 61 0 116 0 123 0 6 0 32 0 57 0 48 -1 67 -2 88 -1 12 0 77 2 277 0
58 0 112 0 120 0 8 0 47 0 85 1 39 1 77 0 85 0 8 0 65 0 125 0 61 0 116 0 123
0 6 0 32 0 57 0 48 -1 67 -2 88 -1 20 0 170 2 202 0 17 1 37 0 45 0 8 0 65 0
125 0 61 0 116 0 123 0 6 0 32 0 57 0 48 -1 67 -2 88 -1 12 0 77 2 277 0 58 0
112 0 120 0 8 0 47 0 85 1 39 1 77 0 85 0 8 0 65 0 125 0 61 0 116 0 123 0 6
0 32 0 57 0 48 -1 67 -2 88 0 6 0 46 1 87 3 218 -19 276 -123 323 -36 16 -87
17 -601 17 -455 -1 -567 -3 -593 -15z"/>
<path d="M8407 7914 c-1 -2 -42 -5 -91 -9 -50 -3 -92 -8 -95 -10 -3 -1 -33 -6
-66 -9 -69 -7 -77 -8 -245 -42 -69 -14 -131 -26 -137 -26 -7 -1 -13 -4 -13 -7
0 -4 -12 -8 -26 -9 -25 -2 -178 -45 -219 -62 -11 -4 -49 -18 -85 -31 -117 -40
-176 -65 -322 -133 -54 -25 -100 -46 -102 -46 -3 0 -29 -14 -58 -31 -29 -18
-75 -44 -103 -59 -110 -60 -468 -306 -495 -340 -3 -4 -38 -35 -79 -70 -110
-94 -265 -251 -383 -390 -7 -8 -43 -53 -80 -100 -38 -47 -72 -90 -78 -97 -5
-7 -10 -16 -10 -22 0 -5 -4 -11 -9 -13 -11 -4 -146 -210 -195 -299 -36 -63
-170 -329 -171 -339 -1 -3 -11 -27 -24 -55 -12 -27 -24 -54 -25 -60 -2 -5 -9
-23 -15 -40 -17 -41 -96 -280 -111 -335 -16 -58 -17 -63 -35 -140 -13 -57 -20
-88 -39 -190 -3 -14 -7 -36 -10 -49 -3 -13 -8 -49 -11 -79 -3 -30 -7 -67 -10
-81 -19 -115 -30 -469 -26 -791 0 -8 0 -80 0 -160 0 -80 0 -152 0 -160 0 -8 0
-46 0 -85 -1 -38 -1 -77 0 -85 0 -8 0 -64 0 -125 0 -60 0 -116 0 -122 0 -7 0
-33 0 -58 0 -25 0 -53 1 -62 0 -10 0 -36 -1 -58 -1 -22 -1 -47 0 -55 0 -8 0
-64 0 -125 0 -60 0 -116 0 -122 0 -7 0 -33 0 -58 0 -25 0 -53 1 -62 0 -10 0
-36 -1 -58 -1 -22 -1 -47 0 -55 0 -8 0 -64 0 -125 0 -60 0 -116 0 -122 0 -7 0
-33 0 -58 0 -25 0 -53 1 -62 0 -10 0 -36 -1 -58 -1 -22 -1 -47 0 -55 0 -8 0
-64 0 -125 0 -60 0 -116 0 -122 0 -7 0 -33 0 -58 0 -25 0 -53 1 -62 0 -10 0
-36 -1 -58 -1 -22 -1 -47 0 -55 0 -8 0 -64 0 -125 0 -60 0 -116 0 -122 0 -7 0
-33 0 -58 0 -48 1 -67 2 -87 0 -7 0 -47 0 -88 0 -41 1 -84 1 -95 0 -11 -1 -43
-2 -71 -3 -36 3 -63 18 -95 40 -83 3 -78 698 -79 665 0 641 -2 693 54 23 25
36 88 31 151 -1 20 -1 41 1 127 1 25 -2 51 -6 57 -3 6 -1 11 5 11 6 0 8 5 5
11 -4 6 -7 34 -6 62 3 122 2 147 -3 156 -4 5 -2 12 4 16 6 4 7 11 4 17 -4 6
-6 31 -5 57 3 113 3 140 -4 150 -3 6 -1 11 5 11 6 0 8 5 5 11 -4 6 -7 34 -6
62 3 122 2 147 -3 156 -4 5 -2 12 4 16 6 4 7 11 4 17 -4 6 -6 31 -5 57 3 113
3 140 -4 150 -3 6 -1 11 5 11 6 0 8 5 5 10 -8 14 -10 108 -3 116 4 3 2 18 -2
34 -4 16 -6 31 -3 34 8 8 7 102 -2 115 -3 6 -1 11 5 11 6 0 8 5 5 11 -4 6 -7
34 -6 62 3 122 2 147 -3 156 -4 5 -2 12 4 16 6 4 7 11 4 17 -4 6 -6 31 -5 57
3 113 3 140 -4 150 -3 6 -1 11 5 11 6 0 8 5 5 11 -4 6 -7 34 -6 62 3 122 2
147 -3 156 -4 5 -2 12 4 16 6 4 7 11 4 17 -4 6 -6 31 -5 57 3 113 3 140 -4
150 -3 6 -1 11 5 11 6 0 8 5 4 12 -8 13 -7 71 2 123 6 34 36 71 74 89 14 7 63
14 109 15 45 0 87 3 91 6 5 3 11 1 15 -5 4 -7 12 -7 24 0 10 5 21 7 24 3 8 -7
97 -10 97 -3 0 7 89 4 97 -3 3 -4 13 -2 23 3 10 5 20 7 23 3 8 -7 97 -10 97
-3 0 7 89 4 97 -3 3 -4 13 -2 23 3 10 5 20 7 23 3 8 -7 97 -10 97 -3 0 7 89 4
97 -3 3 -4 13 -2 23 3 10 5 20 7 23 3 8 -7 97 -10 97 -3 0 7 89 4 97 -3 3 -4
13 -2 23 3 10 5 20 7 23 3 8 -7 97 -10 97 -3 0 7 89 4 97 -3 3 -4 13 -2 23 3
10 5 20 7 23 3 8 -7 97 -10 97 -3 0 7 89 4 97 -3 3 -4 13 -2 23 3 10 5 20 7
23 3 8 -7 97 -10 97 -3 0 4 87 4 100 0 6 -3 50 0 70 4 34 6 80 43 95 76 14 31
15 108 13 651 l-3 615 -25 37 c-23 33 -34 39 -95 53 -34 8 -75 10 -75 5 0 -8
-89 -5 -97 2 -3 4 -13 2 -23 -3 -10 -5 -20 -7 -23 -3 -8 7 -97 10 -97 3 0 -7
-89 -4 -97 3 -3 4 -13 2 -22 -3 -10 -5 -23 -5 -30 -1 -7 5 -30 5 -51 1 -21 -4
-44 -4 -51 1 -7 4 -21 3 -30 -2 -10 -5 -20 -5 -23 -1 -3 5 -26 6 -50 2 -25 -4
-51 -3 -58 1 -6 4 -19 4 -29 -1 -9 -5 -19 -7 -22 -3 -8 7 -97 10 -97 3 0 -3
-21 -4 -47 -3 -27 1 -48 2 -48 3 0 6 -47 5 -51 -1 -2 -5 -15 -4 -28 1 -12 4
-29 4 -36 0 -8 -5 -18 -6 -23 -3 -12 7 -87 10 -87 3 0 -7 -89 -4 -97 3 -3 4
-13 2 -23 -3 -10 -5 -20 -7 -23 -3 -8 8 -97 10 -97 2 0 -4 -18 -3 -40 1 -22 4
-40 5 -40 1 0 -3 -21 -5 -47 -4 -27 1 -48 2 -48 3 0 1 -12 3 -27 4 -16 1 -28
-2 -28 -7 0 -4 -4 -6 -9 -3 -5 3 -27 8 -50 11 -74 9 -129 83 -116 155 14 76
156 315 283 475 51 65 226 244 282 290 116 94 169 132 270 195 79 48 259 140
276 140 8 0 14 4 14 10 0 5 3 9 8 8 4 -1 48 13 97 31 50 18 95 34 100 35 6 1
16 5 23 9 6 5 12 6 12 3 0 -3 18 1 40 9 22 8 40 12 40 9 0 -2 8 0 18 5 10 5
39 12 66 15 26 3 51 8 55 10 3 3 29 7 56 10 158 19 173 21 208 35 42 16 93 75
106 124 9 30 11 194 8 602 -2 308 -6 566 -7 573 -2 6 -7 12 -12 12 -4 0 -8 6
-8 13 -1 28 -52 70 -115 92 -19 7 -83 13 -88 9z"/>
</g>
</svg>
