<?xml version="1.0" encoding="utf-8"?>
<!-- Generator: Adobe Illustrator 25.2.3, SVG Export Plug-In . SVG Version: 6.00 Build 0)  -->
<svg version="1.1" id="Vrstva_1" xmlns="http://www.w3.org/2000/svg" xmlns:xlink="http://www.w3.org/1999/xlink" x="0px" y="0px"
	 viewBox="0 0 277.5 92.4" style="enable-background:new 0 0 277.5 92.4;" xml:space="preserve">
<style type="text/css">
	.st0{fill:#0F172A;}
	.st1{fill:#F43F5E;}
</style>
<path class="st0" d="M159.8,60h-21l-3.1,6.5c-0.4,0.9-0.6,0.9-1.5,0.9h-8.6c-0.3,0-0.5-0.2-0.6-0.5c0,0,0,0,0-0.1
	c0-0.3,0.1-0.6,0.3-0.9l20.3-41.8h7.5l20.3,41.8c0.1,0.3,0.2,0.6,0.3,0.9c0,0.3-0.2,0.5-0.5,0.5c0,0,0,0-0.1,0h-8.6
	c-0.9,0-1.1-0.1-1.5-0.9L159.8,60z M142.2,52.4h14.3l-3.9-8c-1.1-2.5-2.1-5.1-3-7.7h-0.4c-0.9,2.6-1.9,5.2-3,7.7L142.2,52.4z"/>
<path class="st0" d="M179.5,25.2c0-0.5,0.4-0.8,0.9-0.9h20c10.5,0,18,5.7,18,15.1c0,6.5-4,10.9-9.7,13v0.1c0.8,0.9,1.6,1.9,2.3,2.9
	l7.3,10.7c0.2,0.3,0.4,0.6,0.4,0.9c0,0.3-0.1,0.5-0.6,0.5h-9.6c-0.5-0.1-0.9-0.3-1.1-0.7L198.6,54h-9.3v12.7c0,0.5-0.4,0.8-0.9,0.9
	h-8c-0.5,0-0.8-0.4-0.9-0.9V25.2z M189.3,32.5v13.7h10.4c5.4,0,8.9-2.5,8.9-6.8s-3.5-6.9-8.9-6.9L189.3,32.5z"/>
<path class="st0" d="M227.3,67.5c-0.5,0-0.8-0.4-0.9-0.9V25.2c0-0.5,0.4-0.8,0.9-0.9h32.4c0.5,0.1,0.9,0.5,1,1v6.2
	c-0.1,0.5-0.5,0.9-1,1h-23.5v10.8h21c0.5,0.1,0.9,0.5,1,1v6.2c-0.1,0.5-0.5,0.9-1,1h-21v15.1c0,0.5-0.4,0.8-0.9,0.9H227.3z"/>
<path class="st0" d="M277.5,66.6c0,0.5-0.4,0.8-0.9,0.9h-8.1c-0.5,0-0.8-0.4-0.9-0.9V25.2c0-0.5,0.4-0.8,0.9-0.9h8.1
	c0.5,0,0.8,0.4,0.9,0.9V66.6z"/>
<path class="st1" d="M83.4,56.9H63.5c-0.8,0-1.5-0.4-1.8-1.1l-7-12.1c-0.6-1-1.9-1.4-2.9-0.8c-0.3,0.2-0.6,0.4-0.8,0.8L23.4,91.3
	c-0.4,0.7-1.1,1.1-1.8,1.1H2.1C1,92.4,0,91.5,0,90.3c0,0,0,0,0,0c0-0.4,0.1-0.7,0.3-1.1L51.2,1.1c0.6-1,1.9-1.4,2.9-0.8c0,0,0,0,0,0
	c0.3,0.2,0.6,0.5,0.8,0.8l30.4,52.6c0.6,1,0.2,2.3-0.8,2.9c0,0,0,0,0,0C84.1,56.8,83.8,56.9,83.4,56.9z"/>
<path class="st1" d="M103.9,92.4H84c-0.7,0-1.4-0.4-1.8-1.1L72,73.7c-0.6-1-0.2-2.3,0.8-2.9c0.3-0.2,0.7-0.3,1.1-0.3h19.9
	c0.8,0,1.5,0.4,1.8,1.1l10.2,17.6c0.6,1,0.2,2.3-0.8,2.9C104.6,92.3,104.3,92.4,103.9,92.4z"/>
</svg>
