<svg id="Vrstva_1" data-name="Vrstva 1" xmlns="http://www.w3.org/2000/svg" viewBox="0 0 277.53 92.4"><defs><style>.cls-1{fill:#0f172a;}.cls-2{fill:#24adff;}</style></defs><path class="cls-1" d="M308.81,433.69h-21l-3.09,6.55c-.43.87-.65.94-1.51.94h-8.57a.52.52,0,0,1-.58-.51,2.56,2.56,0,0,1,.29-.86L294.62,398h7.49l20.31,41.84a2.56,2.56,0,0,1,.29.86.52.52,0,0,1-.58.51h-8.57c-.86,0-1.08-.07-1.51-.94Zm-17.57-7.63H305.5l-3.89-8a74.3,74.3,0,0,1-3-7.7h-.44a74.3,74.3,0,0,1-3,7.7Z" transform="translate(-149 -373.67)"/><path class="cls-1" d="M328.53,398.84a.94.94,0,0,1,.87-.87h20c10.51,0,18,5.69,18,15.13,0,6.55-4,10.94-9.72,13v.14a25.6,25.6,0,0,1,2.3,2.88l7.27,10.66a1.85,1.85,0,0,1,.44.93c0,.29-.15.51-.58.51h-9.58a1.59,1.59,0,0,1-1.15-.72l-8.78-12.82h-9.29v12.67a.93.93,0,0,1-.87.87H329.4a.94.94,0,0,1-.87-.87Zm9.8,7.34v13.68h10.44c5.4,0,8.86-2.52,8.86-6.76s-3.46-6.92-8.86-6.92Z" transform="translate(-149 -373.67)"/><path class="cls-1" d="M376.34,441.18a.93.93,0,0,1-.86-.87V398.84a.93.93,0,0,1,.86-.87h32.4a1.22,1.22,0,0,1,1,1v6.2a1.21,1.21,0,0,1-1,1H385.27V417h21a1.23,1.23,0,0,1,1,1v6.19a1.22,1.22,0,0,1-1,1h-21v15.12a.93.93,0,0,1-.86.87Z" transform="translate(-149 -373.67)"/><path class="cls-1" d="M426.53,440.31a.93.93,0,0,1-.87.87H417.6a.94.94,0,0,1-.87-.87V398.84a.94.94,0,0,1,.87-.87h8.06a.94.94,0,0,1,.87.87Z" transform="translate(-149 -373.67)"/><path class="cls-2" d="M232.4,430.53H212.52a2.13,2.13,0,0,1-1.84-1.07l-7-12.15a2.14,2.14,0,0,0-3.69,0L172.45,465a2.12,2.12,0,0,1-1.84,1.06H151.13a2.12,2.12,0,0,1-2.13-2.12,2.22,2.22,0,0,1,.28-1.07l50.9-88.14a2.12,2.12,0,0,1,2.9-.78,2.16,2.16,0,0,1,.78.78l30.37,52.61a2.12,2.12,0,0,1-.78,2.9A2.05,2.05,0,0,1,232.4,430.53Z" transform="translate(-149 -373.67)"/><path class="cls-2" d="M252.91,466.06H233A2.12,2.12,0,0,1,231.2,465L221,447.38a2.13,2.13,0,0,1,1.84-3.19h19.87a2.13,2.13,0,0,1,1.84,1.07l10.17,17.61a2.13,2.13,0,0,1-.77,2.91A2.11,2.11,0,0,1,252.91,466.06Z" transform="translate(-149 -373.67)"/></svg>