<svg id="Vrstva_1" data-name="Vrstva 1" xmlns="http://www.w3.org/2000/svg" xmlns:xlink="http://www.w3.org/1999/xlink" viewBox="0 0 258.56 50.67"><defs><style>.cls-1{fill:url(#Nepojmenovaný_přechod_3);}.cls-2{fill:url(#Nepojmenovaný_přechod_3-2);}.cls-3{fill:url(#Nepojmenovaný_přechod_3-3);}.cls-4{fill:#3c3c3b;}</style><linearGradient id="Nepojmenovaný_přechod_3" x1="132.34" y1="1167.38" x2="138.98" y2="1163.55" gradientTransform="matrix(1, 0, 0, -1, -72, 1611.78)" gradientUnits="userSpaceOnUse"><stop offset="0" stop-color="#34a0a4"/><stop offset="1" stop-color="#158aae"/></linearGradient><linearGradient id="Nepojmenovaný_přechod_3-2" x1="161.08" y1="1173.26" x2="169.95" y2="1168.14" xlink:href="#Nepojmenovaný_přechod_3"/><linearGradient id="Nepojmenovaný_přechod_3-3" x1="116.74" y1="1186.79" x2="183.54" y2="1148.22" xlink:href="#Nepojmenovaný_přechod_3"/></defs><path class="cls-1" d="M63.17,440.33a.26.26,0,0,0-.32-.16.26.26,0,0,0-.15.16l-2.88,9.32A.25.25,0,0,0,60,450h5.85a.25.25,0,0,0,.25-.25s0-.05,0-.07Z" transform="translate(-44.36 -421.76)"/><path class="cls-2" d="M94.59,436.71H90.26A.25.25,0,0,0,90,437v7.77a.25.25,0,0,0,.24.25h4.33a4.14,4.14,0,0,0,3.11-1.08,4.93,4.93,0,0,0,0-6.08A4.05,4.05,0,0,0,94.59,436.71Z" transform="translate(-44.36 -421.76)"/><path class="cls-3" d="M106.6,421.76H86.9a3.13,3.13,0,0,0-3.13,3.12v.32a2.19,2.19,0,0,1-2.19,2.19H74.7a2.19,2.19,0,0,1-2.19-2.19v-.32a3.13,3.13,0,0,0-3.13-3.12H49.68a5.32,5.32,0,0,0-5.32,5.31h0v34.41a5.32,5.32,0,0,0,5.32,5.31H66.57a3.13,3.13,0,0,1,3.13,3.13v.32a2.19,2.19,0,0,0,2.18,2.18H84.4a2.19,2.19,0,0,0,2.18-2.18v-.32a3.13,3.13,0,0,1,3.13-3.13H106.6a5.32,5.32,0,0,0,5.32-5.31V427.07A5.32,5.32,0,0,0,106.6,421.76ZM77.07,461.17H69.84a.26.26,0,0,1-.24-.18L68,455.73a.26.26,0,0,0-.24-.17H58.17a.25.25,0,0,0-.24.17L56.31,461a.28.28,0,0,1-.24.18H48.88a.26.26,0,0,1-.25-.25.28.28,0,0,1,0-.09l10.83-29.52a.25.25,0,0,1,.23-.16h6.46a.28.28,0,0,1,.24.16l10.9,29.52a.25.25,0,0,1-.14.32Zm29.66,0H99.38a.28.28,0,0,1-.22-.14L94,450.69a.24.24,0,0,0-.22-.14H90.26a.25.25,0,0,0-.24.25v10.12a.26.26,0,0,1-.25.25H83a.25.25,0,0,1-.25-.25V431.4a.25.25,0,0,1,.25-.25H94.59q5.34,0,8.35,2.37a8,8,0,0,1,3,6.69,9.69,9.69,0,0,1-1.27,5.19,8.83,8.83,0,0,1-3.74,3.23.25.25,0,0,0-.11.33h0L107,460.8a.27.27,0,0,1,0,.12.25.25,0,0,1-.25.25Z" transform="translate(-44.36 -421.76)"/><path class="cls-4" d="M129.76,454.19H141v4.23H124.49V432.83h5.27Z" transform="translate(-44.36 -421.76)"/><path class="cls-4" d="M142.71,434.48a2.5,2.5,0,0,1,.77-1.88,3.28,3.28,0,0,1,4.15,0,2.67,2.67,0,0,1,0,3.78,3.25,3.25,0,0,1-4.13,0A2.49,2.49,0,0,1,142.71,434.48Zm5.4,23.94H143v-19h5.1Z" transform="translate(-44.36 -421.76)"/><path class="cls-4" d="M158.51,452.22,162,439.41h5.31l-6.41,19h-4.86l-6.41-19H155Z" transform="translate(-44.36 -421.76)"/><path class="cls-4" d="M168.65,434.48a2.49,2.49,0,0,1,.76-1.88,3.29,3.29,0,0,1,4.16,0,2.69,2.69,0,0,1,0,3.78,3.25,3.25,0,0,1-4.13,0A2.49,2.49,0,0,1,168.65,434.48ZM174,458.42H169v-19H174Z" transform="translate(-44.36 -421.76)"/><path class="cls-4" d="M182,439.41l.16,2.19a6.64,6.64,0,0,1,5.47-2.55,5.52,5.52,0,0,1,4.5,1.78,8.28,8.28,0,0,1,1.51,5.31v12.28h-5.08V446.26a3.3,3.3,0,0,0-.7-2.35,3.18,3.18,0,0,0-2.34-.73A3.5,3.5,0,0,0,182.3,445v13.41h-5.08v-19Z" transform="translate(-44.36 -421.76)"/><path class="cls-4" d="M195.85,448.77a11.13,11.13,0,0,1,2.09-7,6.72,6.72,0,0,1,5.61-2.68,5.92,5.92,0,0,1,4.87,2.15l.21-1.79h4.61v18.38a8.07,8.07,0,0,1-1.14,4.34,7.31,7.31,0,0,1-3.19,2.82,11.25,11.25,0,0,1-4.81,1,10.52,10.52,0,0,1-4.08-.83,7.25,7.25,0,0,1-3-2.16l2.25-3.09a6,6,0,0,0,4.61,2.13,4.34,4.34,0,0,0,3.14-1.08,4.07,4.07,0,0,0,1.13-3.07v-1a5.88,5.88,0,0,1-4.62,2A6.75,6.75,0,0,1,198,456.1a11.17,11.17,0,0,1-2.12-7.11Zm5.08.38a7,7,0,0,0,1,4.06,3.3,3.3,0,0,0,2.85,1.47,3.53,3.53,0,0,0,3.32-1.74v-8a3.53,3.53,0,0,0-3.29-1.75,3.31,3.31,0,0,0-2.87,1.5A7.81,7.81,0,0,0,200.93,449.15Z" transform="translate(-44.36 -421.76)"/><path class="cls-4" d="M224.64,458.42V432.83h9c3.11,0,5.46.6,7.07,1.79a6.07,6.07,0,0,1,2.41,5.22,5.76,5.76,0,0,1-1,3.32,5.61,5.61,0,0,1-2.69,2.1,5.38,5.38,0,0,1,3.1,2,5.82,5.82,0,0,1,1.14,3.65,6.75,6.75,0,0,1-2.36,5.59q-2.36,1.9-6.71,1.93Zm5.27-14.87h3.9q4-.06,4-3.18a2.91,2.91,0,0,0-1-2.5,5.29,5.29,0,0,0-3.19-.77h-3.69Zm0,3.73v6.91h4.52a4.38,4.38,0,0,0,2.91-.89,3,3,0,0,0,1-2.45c0-2.35-1.21-3.53-3.63-3.57Z" transform="translate(-44.36 -421.76)"/><path class="cls-4" d="M245.59,448.74a11.26,11.26,0,0,1,1.09-5.05,7.94,7.94,0,0,1,3.14-3.42,9.13,9.13,0,0,1,4.75-1.22,8.64,8.64,0,0,1,6.28,2.36,9.43,9.43,0,0,1,2.72,6.4l0,1.3a9.92,9.92,0,0,1-2.45,7,9.46,9.46,0,0,1-13.12,0,10.14,10.14,0,0,1-2.45-7.17Zm5.08.36a7.12,7.12,0,0,0,1,4.15,3.66,3.66,0,0,0,5.8,0,7.76,7.76,0,0,0,1-4.53,7,7,0,0,0-1-4.12,3.39,3.39,0,0,0-2.92-1.46,3.31,3.31,0,0,0-2.88,1.45A7.92,7.92,0,0,0,250.67,449.1Z" transform="translate(-44.36 -421.76)"/><path class="cls-4" d="M265,448.74a11.39,11.39,0,0,1,1.09-5.05,8.06,8.06,0,0,1,3.14-3.42,9.16,9.16,0,0,1,4.76-1.22,8.66,8.66,0,0,1,6.28,2.36,9.48,9.48,0,0,1,2.72,6.4l0,1.3a9.92,9.92,0,0,1-2.44,7,9.46,9.46,0,0,1-13.12,0A10.1,10.1,0,0,1,265,449Zm5.08.36a7.12,7.12,0,0,0,1,4.15,3.66,3.66,0,0,0,5.8,0,7.68,7.68,0,0,0,1-4.53,7,7,0,0,0-1-4.12,3.37,3.37,0,0,0-2.91-1.46,3.31,3.31,0,0,0-2.89,1.45A7.92,7.92,0,0,0,270.12,449.1Z" transform="translate(-44.36 -421.76)"/><path class="cls-4" d="M292.2,450.8l-1.83,1.82v5.8h-5.08v-27h5.08v15l1-1.26,4.87-5.71h6.1l-6.87,7.92,7.47,11.09h-5.83Z" transform="translate(-44.36 -421.76)"/></svg>