<svg id="Vrstva_1" data-name="Vrstva 1" xmlns="http://www.w3.org/2000/svg" viewBox="0 0 417.32 46.41"><defs><style>.cls-1{fill:#4f46e5;}</style></defs><path class="cls-1" d="M98.64,428.09a4.46,4.46,0,0,1-3.15-1.23,3.92,3.92,0,0,1-1.32-3A3.87,3.87,0,0,1,95.49,421a4.46,4.46,0,0,1,3.15-1.23A4.4,4.4,0,0,1,101.8,421a4,4,0,0,1,0,5.91A4.43,4.43,0,0,1,98.64,428.09Zm-3.88,37.38V432.74h7.72v32.73Z" transform="translate(-94.17 -419.72)"/><path class="cls-1" d="M113.61,446.29v19.18H105.9V432.74h7.37v5.56h.39a9.3,9.3,0,0,1,3.61-4.37,11,11,0,0,1,6.15-1.62,11.64,11.64,0,0,1,5.91,1.45,9.9,9.9,0,0,1,3.92,4.2,14.33,14.33,0,0,1,1.37,6.67v20.84h-7.71V445.82a7.3,7.3,0,0,0-1.69-5.13,6,6,0,0,0-4.68-1.86,7.16,7.16,0,0,0-3.59.89,6.19,6.19,0,0,0-2.45,2.54A8.48,8.48,0,0,0,113.61,446.29Z" transform="translate(-94.17 -419.72)"/><path class="cls-1" d="M154.33,432.74v6H135.51v-6Zm-14.17-7.84h7.71v30.72a4.79,4.79,0,0,0,.48,2.38,2.5,2.5,0,0,0,1.27,1.12,4.87,4.87,0,0,0,1.75.29,7.9,7.9,0,0,0,1.33-.1c.4-.07.71-.14.92-.19l1.3,6a17.84,17.84,0,0,1-1.75.46,14.06,14.06,0,0,1-2.78.3,12.47,12.47,0,0,1-5.22-.88,8,8,0,0,1-3.68-3,8.9,8.9,0,0,1-1.33-5.11Z" transform="translate(-94.17 -419.72)"/><path class="cls-1" d="M170.43,466.1a16.73,16.73,0,0,1-8.49-2.05,13.77,13.77,0,0,1-5.49-5.84,21.62,21.62,0,0,1,0-17.79,14.56,14.56,0,0,1,5.41-6,15.27,15.27,0,0,1,8.16-2.14,17,17,0,0,1,5.72,1,13.29,13.29,0,0,1,4.77,3,14.1,14.1,0,0,1,3.27,5.14,20.72,20.72,0,0,1,1.19,7.43v2.36H158.16V446h19.43a8.27,8.27,0,0,0-1-3.95,7,7,0,0,0-2.61-2.74,7.39,7.39,0,0,0-3.89-1,7.56,7.56,0,0,0-4.15,1.14,7.87,7.87,0,0,0-2.78,3,8.55,8.55,0,0,0-1,4V451a10.57,10.57,0,0,0,1,4.89,7.32,7.32,0,0,0,2.92,3.11,8.63,8.63,0,0,0,4.39,1.08,9.1,9.1,0,0,0,3-.48A6.61,6.61,0,0,0,176,458.2a5.88,5.88,0,0,0,1.51-2.32l7.2.81a11.06,11.06,0,0,1-2.59,5,12.48,12.48,0,0,1-4.86,3.28A18.39,18.39,0,0,1,170.43,466.1Z" transform="translate(-94.17 -419.72)"/><path class="cls-1" d="M187,465.47V432.74h7.48v5.45h.34a8.19,8.19,0,0,1,3.08-4.38,8.44,8.44,0,0,1,5-1.54c.42,0,.9,0,1.44.05a11.85,11.85,0,0,1,1.33.16v7.1a7.79,7.79,0,0,0-1.55-.31,16,16,0,0,0-2-.14,7.72,7.72,0,0,0-3.78.91,6.69,6.69,0,0,0-2.64,2.5,7.09,7.09,0,0,0-.95,3.69v19.24Z" transform="translate(-94.17 -419.72)"/><path class="cls-1" d="M215.1,466.13a13.54,13.54,0,0,1-5.59-1.12,9,9,0,0,1-3.92-3.32,9.63,9.63,0,0,1-1.44-5.41,9.27,9.27,0,0,1,1-4.58,8,8,0,0,1,2.79-2.9,14.63,14.63,0,0,1,4-1.65,33.84,33.84,0,0,1,4.61-.82c1.92-.2,3.48-.38,4.67-.54a6.7,6.7,0,0,0,2.61-.77,1.79,1.79,0,0,0,.82-1.63v-.13a4.82,4.82,0,0,0-1.43-3.72,5.79,5.79,0,0,0-4.11-1.33,7.38,7.38,0,0,0-4.49,1.24,6.07,6.07,0,0,0-2.22,2.92l-7.2-1a11.45,11.45,0,0,1,2.81-5,12.42,12.42,0,0,1,4.79-3,18.66,18.66,0,0,1,6.27-1,20.48,20.48,0,0,1,4.71.56,13.27,13.27,0,0,1,4.28,1.82,9.36,9.36,0,0,1,3.12,3.44,11.25,11.25,0,0,1,1.18,5.43v21.91H225V461h-.26a9.31,9.31,0,0,1-2,2.55,9.41,9.41,0,0,1-3.17,1.89A12.62,12.62,0,0,1,215.1,466.13Zm2-5.67a8.29,8.29,0,0,0,4-.93,6.73,6.73,0,0,0,2.63-2.46,6.33,6.33,0,0,0,.93-3.34v-3.86a3.6,3.6,0,0,1-1.22.55,19.09,19.09,0,0,1-1.93.45c-.71.13-1.42.24-2.11.34l-1.81.26a13.44,13.44,0,0,0-3.09.76,5.19,5.19,0,0,0-2.15,1.48,3.69,3.69,0,0,0-.79,2.44,3.65,3.65,0,0,0,1.55,3.22A6.74,6.74,0,0,0,217.11,460.46Z" transform="translate(-94.17 -419.72)"/><path class="cls-1" d="M249.93,466.1a15.71,15.71,0,0,1-8.4-2.15,14.25,14.25,0,0,1-5.39-5.95,21.23,21.23,0,0,1,0-17.58,14.45,14.45,0,0,1,5.42-6,15.7,15.7,0,0,1,8.3-2.14,16.31,16.31,0,0,1,7.06,1.46,11.9,11.9,0,0,1,7,10.3h-7.37a7.13,7.13,0,0,0-2.12-3.95,6.19,6.19,0,0,0-4.46-1.59,7.07,7.07,0,0,0-4.16,1.27,8.26,8.26,0,0,0-2.78,3.63,14.67,14.67,0,0,0-1,5.67,15.18,15.18,0,0,0,1,5.74,8.38,8.38,0,0,0,2.76,3.69,7,7,0,0,0,4.19,1.29,7.08,7.08,0,0,0,3.06-.65,6,6,0,0,0,2.26-1.89,7.15,7.15,0,0,0,1.26-3H264a12.78,12.78,0,0,1-2,6.15,12,12,0,0,1-4.82,4.17A16,16,0,0,1,249.93,466.1Z" transform="translate(-94.17 -419.72)"/><path class="cls-1" d="M282.15,432.74v6H263.33v-6ZM268,424.9h7.71v30.72a4.79,4.79,0,0,0,.48,2.38,2.5,2.5,0,0,0,1.27,1.12,4.81,4.81,0,0,0,1.74.29,7.94,7.94,0,0,0,1.34-.1c.4-.07.71-.14.92-.19l1.3,6a18.18,18.18,0,0,1-1.76.46,14,14,0,0,1-2.78.3A12.52,12.52,0,0,1,273,465a8,8,0,0,1-3.67-3A8.9,8.9,0,0,1,268,456.9Z" transform="translate(-94.17 -419.72)"/><path class="cls-1" d="M288,428.09a4.46,4.46,0,0,1-3.15-1.23,3.9,3.9,0,0,1-1.33-3,3.85,3.85,0,0,1,1.33-2.95,4.46,4.46,0,0,1,3.15-1.23,4.4,4.4,0,0,1,3.16,1.24,4,4,0,0,1,0,5.91A4.43,4.43,0,0,1,288,428.09Zm-3.88,37.38V432.74h7.71v32.73Z" transform="translate(-94.17 -419.72)"/><path class="cls-1" d="M324.47,432.74l-11.65,32.73H304.3l-11.66-32.73h8.23l7.52,24.31h.34l7.54-24.31Z" transform="translate(-94.17 -419.72)"/><path class="cls-1" d="M338.66,466.1a16.73,16.73,0,0,1-8.49-2.05,13.77,13.77,0,0,1-5.49-5.84,21.51,21.51,0,0,1,0-17.79,14.61,14.61,0,0,1,5.4-6,15.32,15.32,0,0,1,8.16-2.14,17,17,0,0,1,5.73,1,13.29,13.29,0,0,1,4.77,3,14.1,14.1,0,0,1,3.27,5.14,20.94,20.94,0,0,1,1.19,7.43v2.36H326.39V446h19.43a8.39,8.39,0,0,0-1-3.95,7,7,0,0,0-2.61-2.74,7.41,7.41,0,0,0-3.89-1,7.56,7.56,0,0,0-4.15,1.14,7.87,7.87,0,0,0-2.78,3,8.68,8.68,0,0,0-1,4V451a10.57,10.57,0,0,0,1,4.89,7.32,7.32,0,0,0,2.92,3.11,8.63,8.63,0,0,0,4.39,1.08,9.1,9.1,0,0,0,3-.48,6.61,6.61,0,0,0,2.37-1.42,5.88,5.88,0,0,0,1.51-2.32l7.2.81a11.06,11.06,0,0,1-2.59,5,12.48,12.48,0,0,1-4.86,3.28A18.39,18.39,0,0,1,338.66,466.1Z" transform="translate(-94.17 -419.72)"/><path class="cls-1" d="M361.18,465.47h-8.44l15.36-43.64h9.76l15.38,43.64h-8.43l-11.66-34.69h-.34Zm.27-17.11h23v6.35h-23Z" transform="translate(-94.17 -419.72)"/><path class="cls-1" d="M417.53,433.83a5.82,5.82,0,0,0-2.5-4.35,9.7,9.7,0,0,0-5.73-1.56,10.86,10.86,0,0,0-4.24.75,6.31,6.31,0,0,0-2.7,2,4.87,4.87,0,0,0-1,2.92A4.37,4.37,0,0,0,402,436a5.52,5.52,0,0,0,1.71,1.69,11.94,11.94,0,0,0,2.41,1.16,26,26,0,0,0,2.66.79l4.1,1a28.81,28.81,0,0,1,4.76,1.56,17.07,17.07,0,0,1,4.11,2.47,11.11,11.11,0,0,1,2.89,3.6,10.86,10.86,0,0,1,1.06,4.94,11.77,11.77,0,0,1-2,6.75,12.9,12.9,0,0,1-5.65,4.54,22.24,22.24,0,0,1-8.94,1.63,22.61,22.61,0,0,1-8.83-1.58,13.1,13.1,0,0,1-5.84-4.6,13.57,13.57,0,0,1-2.27-7.37H400a6.71,6.71,0,0,0,1.41,3.79,7.48,7.48,0,0,0,3.23,2.26,12.8,12.8,0,0,0,4.46.74,12.14,12.14,0,0,0,4.53-.78,7.15,7.15,0,0,0,3.06-2.17,5.23,5.23,0,0,0,1.13-3.27,4.23,4.23,0,0,0-1-2.82,7.63,7.63,0,0,0-2.74-1.88,28.57,28.57,0,0,0-4.1-1.35l-5-1.28a19.71,19.71,0,0,1-8.51-4.21,9.62,9.62,0,0,1-3.12-7.51,11.19,11.19,0,0,1,2.1-6.75,13.77,13.77,0,0,1,5.72-4.51,20,20,0,0,1,8.2-1.61,19.4,19.4,0,0,1,8.15,1.61,13.43,13.43,0,0,1,5.51,4.45,11.55,11.55,0,0,1,2.07,6.54Z" transform="translate(-94.17 -419.72)"/><path class="cls-1" d="M428.26,421.83h9.68l12.95,31.62h.51l13-31.62H474v43.64h-7.59v-30H466L454,465.34h-5.67l-12.06-29.92h-.4v30.05h-7.59Z" transform="translate(-94.17 -419.72)"/><path class="cls-1" d="M478.14,465.47V421.83H494.5a18.38,18.38,0,0,1,8.45,1.75,12,12,0,0,1,5.18,4.89,14.74,14.74,0,0,1,1.75,7.32,14.34,14.34,0,0,1-1.77,7.27,11.8,11.8,0,0,1-5.23,4.75,19.3,19.3,0,0,1-8.48,1.68H482.74v-6.57h10.59a12.1,12.1,0,0,0,4.82-.82,5.78,5.78,0,0,0,2.78-2.4,7.85,7.85,0,0,0,.9-3.91,8.1,8.1,0,0,0-.91-4,5.93,5.93,0,0,0-2.8-2.51,11.53,11.53,0,0,0-4.83-.87H486v37Zm22.54-19.78,10.8,19.78h-8.82l-10.61-19.78Z" transform="translate(-94.17 -419.72)"/></svg>