<?xml version="1.0" encoding="UTF-8" standalone="no"?>
<!DOCTYPE svg PUBLIC "-//W3C//DTD SVG 1.1//EN" "http://www.w3.org/Graphics/SVG/1.1/DTD/svg11.dtd">
<svg width="100%" height="100%" viewBox="0 0 2421 522" version="1.1" xmlns="http://www.w3.org/2000/svg" xmlns:xlink="http://www.w3.org/1999/xlink" xml:space="preserve" xmlns:serif="http://www.serif.com/" style="fill-rule:evenodd;clip-rule:evenodd;stroke-linejoin:round;stroke-miterlimit:2;">
    <g transform="matrix(1,0,0,1,-543.597,-979.522)">
        <g transform="matrix(1,0,0,1,168.189,212.643)">
            <g transform="matrix(300,0,0,300,1271.56,1133.41)">
                <path d="M0.188,-0L0.188,-0.122L0.354,-0.122C0.384,-0.122 0.408,-0.131 0.426,-0.149C0.443,-0.167 0.452,-0.189 0.452,-0.215C0.452,-0.233 0.448,-0.249 0.44,-0.263C0.432,-0.277 0.421,-0.288 0.406,-0.296C0.392,-0.304 0.374,-0.308 0.354,-0.308L0.188,-0.308L0.188,-0.427L0.341,-0.427C0.367,-0.427 0.388,-0.434 0.404,-0.447C0.42,-0.46 0.428,-0.479 0.428,-0.506C0.428,-0.532 0.42,-0.552 0.404,-0.565C0.388,-0.578 0.367,-0.584 0.341,-0.584L0.188,-0.584L0.188,-0.706L0.371,-0.706C0.416,-0.706 0.454,-0.698 0.486,-0.681C0.518,-0.664 0.542,-0.642 0.559,-0.614C0.576,-0.586 0.584,-0.555 0.584,-0.521C0.584,-0.477 0.57,-0.441 0.542,-0.411C0.514,-0.381 0.472,-0.36 0.418,-0.349L0.422,-0.402C0.481,-0.39 0.527,-0.367 0.56,-0.333C0.592,-0.298 0.608,-0.255 0.608,-0.205C0.608,-0.166 0.598,-0.131 0.579,-0.1C0.56,-0.069 0.533,-0.045 0.497,-0.027C0.461,-0.009 0.419,-0 0.369,-0L0.188,-0ZM0.068,-0L0.068,-0.706L0.223,-0.706L0.223,-0L0.068,-0Z" style="fill:rgb(30,41,59);fill-rule:nonzero;"/>
            </g>
            <g transform="matrix(300,0,0,300,1459.66,1133.41)">
                <path d="M0.015,-0L0.295,-0.706L0.437,-0.706L0.714,-0L0.548,-0L0.336,-0.586L0.393,-0.586L0.178,-0L0.015,-0ZM0.174,-0.128L0.174,-0.256L0.559,-0.256L0.559,-0.128L0.174,-0.128Z" style="fill:rgb(30,41,59);fill-rule:nonzero;"/>
            </g>
            <g transform="matrix(300,0,0,300,1628.26,1133.41)">
                <path d="M0.241,-0L0.241,-0.696L0.398,-0.696L0.398,-0L0.241,-0ZM0.02,-0.569L0.02,-0.706L0.619,-0.706L0.619,-0.569L0.02,-0.569Z" style="fill:rgb(30,41,59);fill-rule:nonzero;"/>
            </g>
            <g transform="matrix(300,0,0,300,1802.26,1133.41)">
                <path d="M0.403,0.011C0.35,0.011 0.301,0.002 0.256,-0.017C0.211,-0.035 0.172,-0.061 0.138,-0.094C0.104,-0.127 0.078,-0.166 0.06,-0.21C0.041,-0.254 0.032,-0.302 0.032,-0.354C0.032,-0.405 0.041,-0.453 0.06,-0.497C0.078,-0.541 0.104,-0.58 0.138,-0.613C0.171,-0.645 0.21,-0.671 0.255,-0.689C0.3,-0.708 0.349,-0.717 0.402,-0.717C0.458,-0.717 0.507,-0.708 0.551,-0.69C0.595,-0.672 0.633,-0.647 0.666,-0.616L0.561,-0.51C0.542,-0.53 0.52,-0.546 0.494,-0.557C0.467,-0.568 0.437,-0.574 0.402,-0.574C0.371,-0.574 0.343,-0.569 0.317,-0.559C0.292,-0.548 0.27,-0.533 0.251,-0.514C0.233,-0.494 0.218,-0.471 0.208,-0.444C0.198,-0.417 0.193,-0.387 0.193,-0.354C0.193,-0.32 0.198,-0.29 0.208,-0.263C0.218,-0.236 0.233,-0.212 0.251,-0.193C0.27,-0.173 0.292,-0.158 0.317,-0.148C0.343,-0.137 0.371,-0.132 0.402,-0.132C0.438,-0.132 0.469,-0.138 0.496,-0.149C0.523,-0.16 0.546,-0.176 0.565,-0.196L0.671,-0.09C0.637,-0.058 0.598,-0.034 0.555,-0.016C0.511,0.002 0.46,0.011 0.403,0.011Z" style="fill:rgb(30,41,59);fill-rule:nonzero;"/>
            </g>
            <g transform="matrix(300,0,0,300,2004.76,1133.41)">
                <path d="M0.405,0.012C0.352,0.012 0.302,0.003 0.257,-0.016C0.212,-0.035 0.173,-0.061 0.139,-0.094C0.105,-0.127 0.079,-0.166 0.06,-0.21C0.041,-0.255 0.032,-0.303 0.032,-0.354C0.032,-0.406 0.041,-0.454 0.06,-0.498C0.078,-0.542 0.104,-0.58 0.138,-0.613C0.171,-0.646 0.211,-0.672 0.256,-0.691C0.301,-0.709 0.349,-0.718 0.403,-0.718C0.456,-0.718 0.505,-0.709 0.55,-0.691C0.595,-0.672 0.634,-0.646 0.668,-0.613C0.701,-0.58 0.727,-0.541 0.746,-0.497C0.765,-0.453 0.774,-0.405 0.774,-0.353C0.774,-0.302 0.765,-0.254 0.746,-0.21C0.727,-0.165 0.701,-0.126 0.668,-0.093C0.634,-0.06 0.595,-0.034 0.55,-0.016C0.505,0.003 0.457,0.012 0.405,0.012ZM0.403,-0.131C0.445,-0.131 0.482,-0.14 0.513,-0.159C0.545,-0.178 0.569,-0.204 0.587,-0.237C0.604,-0.271 0.613,-0.31 0.613,-0.354C0.613,-0.387 0.608,-0.417 0.598,-0.444C0.588,-0.471 0.574,-0.494 0.555,-0.514C0.536,-0.534 0.514,-0.549 0.489,-0.559C0.463,-0.57 0.434,-0.575 0.403,-0.575C0.361,-0.575 0.324,-0.566 0.292,-0.548C0.261,-0.529 0.236,-0.503 0.219,-0.47C0.201,-0.437 0.193,-0.398 0.193,-0.354C0.193,-0.321 0.198,-0.29 0.208,-0.263C0.218,-0.235 0.232,-0.212 0.25,-0.192C0.269,-0.173 0.291,-0.158 0.317,-0.147C0.343,-0.136 0.371,-0.131 0.403,-0.131Z" style="fill:rgb(30,41,59);fill-rule:nonzero;"/>
            </g>
            <g transform="matrix(300,0,0,300,2242.66,1133.41)">
                <path d="M0.188,-0.291L0.188,-0.407L0.337,-0.407C0.368,-0.407 0.393,-0.415 0.41,-0.431C0.427,-0.447 0.435,-0.468 0.435,-0.496C0.435,-0.521 0.427,-0.542 0.41,-0.559C0.393,-0.576 0.369,-0.584 0.338,-0.584L0.188,-0.584L0.188,-0.706L0.356,-0.706C0.403,-0.706 0.444,-0.697 0.479,-0.679C0.514,-0.661 0.542,-0.637 0.562,-0.606C0.582,-0.575 0.592,-0.539 0.592,-0.498C0.592,-0.456 0.582,-0.42 0.562,-0.389C0.542,-0.358 0.514,-0.334 0.478,-0.317C0.442,-0.299 0.399,-0.291 0.351,-0.291L0.188,-0.291ZM0.068,-0L0.068,-0.706L0.225,-0.706L0.225,-0L0.068,-0ZM0.452,-0L0.232,-0.304L0.376,-0.343L0.638,-0L0.452,-0Z" style="fill:rgb(30,41,59);fill-rule:nonzero;"/>
            </g>
            <g transform="matrix(300,0,0,300,2429.56,1133.41)">
                <path d="M0.068,-0L0.068,-0.706L0.225,-0.706L0.225,-0L0.068,-0ZM0.188,-0L0.188,-0.136L0.575,-0.136L0.575,-0L0.188,-0ZM0.188,-0.295L0.188,-0.426L0.54,-0.426L0.54,-0.295L0.188,-0.295ZM0.188,-0.571L0.188,-0.706L0.57,-0.706L0.57,-0.571L0.188,-0.571Z" style="fill:rgb(30,41,59);fill-rule:nonzero;"/>
            </g>
            <g transform="matrix(125,0,0,125,2605.96,1133.41)">
                <path d="M0.15,0.011C0.124,0.011 0.102,0.002 0.085,-0.016C0.068,-0.034 0.059,-0.055 0.059,-0.081C0.059,-0.107 0.068,-0.129 0.085,-0.147C0.102,-0.165 0.124,-0.174 0.15,-0.174C0.176,-0.174 0.198,-0.165 0.215,-0.147C0.232,-0.129 0.241,-0.107 0.241,-0.081C0.241,-0.055 0.232,-0.034 0.215,-0.016C0.198,0.002 0.176,0.011 0.15,0.011Z" style="fill:rgb(30,41,59);fill-rule:nonzero;"/>
            </g>
            <g transform="matrix(125,0,0,125,2641.96,1133.41)">
                <path d="M0.068,-0L0.068,-0.706L0.225,-0.706L0.225,-0L0.068,-0ZM0.188,-0L0.188,-0.136L0.575,-0.136L0.575,-0L0.188,-0ZM0.188,-0.295L0.188,-0.426L0.54,-0.426L0.54,-0.295L0.188,-0.295ZM0.188,-0.571L0.188,-0.706L0.57,-0.706L0.57,-0.571L0.188,-0.571Z" style="fill:rgb(30,41,59);fill-rule:nonzero;"/>
            </g>
            <g transform="matrix(125,0,0,125,2715.46,1133.41)">
                <path d="M0.352,0.011C0.294,0.011 0.243,-0.001 0.199,-0.026C0.155,-0.051 0.12,-0.085 0.095,-0.129C0.07,-0.172 0.057,-0.222 0.057,-0.278L0.057,-0.706L0.215,-0.706L0.215,-0.269C0.215,-0.241 0.221,-0.216 0.233,-0.196C0.245,-0.175 0.261,-0.159 0.282,-0.148C0.303,-0.137 0.326,-0.132 0.352,-0.132C0.378,-0.132 0.402,-0.137 0.422,-0.148C0.442,-0.159 0.458,-0.175 0.469,-0.195C0.481,-0.216 0.487,-0.24 0.487,-0.268L0.487,-0.706L0.645,-0.706L0.645,-0.277C0.645,-0.221 0.633,-0.171 0.608,-0.128C0.583,-0.085 0.549,-0.051 0.505,-0.026C0.461,-0.001 0.41,0.011 0.352,0.011Z" style="fill:rgb(30,41,59);fill-rule:nonzero;"/>
            </g>
        </g>
        <g id="mark_simple_color_dark.svg" transform="matrix(0.581776,0,0,0.581776,933.678,1240.16)">
            <g transform="matrix(1,0,0,1,-670.5,-448)">
                <clipPath id="_clip1">
                    <rect x="0" y="0" width="1341" height="896"/>
                </clipPath>
                <g clip-path="url(#_clip1)">
                    <g id="Simple-logo" serif:id="Simple logo" transform="matrix(1,0,0,1,-558.223,-1306.4)">
                        <g>
                            <g id="Pravá-strana" serif:id="Pravá strana" transform="matrix(-1,0,0,1,2457.11,0)">
                                <path id="Křídlo2-2" serif:id="Křídlo2 2" d="M893.161,1815.79C1016.08,1777.54 1131.63,1814.28 1228.56,2044.46L1228.56,2201.47C1169.03,2180.69 1031.09,2122.99 890.8,1961.88C864.09,1927.12 822.013,1897.16 774.79,1874.1C828.638,1842.14 893.161,1815.79 893.161,1815.79Z" style="fill:rgb(30,58,138);"/>
                                <path id="Křídlo2-1" serif:id="Křídlo2 1" d="M774.79,1874.1C702.427,1838.77 617.98,1819.63 558.223,1824.18C558.379,1823.72 558.534,1823.26 558.691,1822.8C597.065,1709.13 669.5,1596.61 742.576,1505.03C821.708,1405.86 901.591,1331.26 939.795,1306.4C928.743,1341.12 919.883,1375.73 912.955,1413.73C902.136,1473.07 896.031,1540.67 893.649,1629.83C892.225,1683.15 892.133,1744.19 893.161,1815.79C893.161,1815.79 828.638,1842.14 774.79,1874.1Z" style="fill:rgb(30,64,175);"/>
                                <g id="Křídlo1" transform="matrix(1,0,0,1,0.323165,-0.196668)">
                                    <path d="M1228.23,1753.92L1228.23,1948.99C1182,1818.5 1047.45,1740.68 937.543,1766.85C930.994,1727.53 935.309,1554.2 958.252,1439.49C987.575,1506.18 1013.54,1567.11 1079.47,1605.33C1163.18,1653.84 1193.12,1690.19 1228.23,1753.92Z" style="fill:rgb(15,23,42);"/>
                                </g>
                                <path id="Hlava" d="M1145.67,1418.7L1187.11,1513.19L1228.56,1513.19L1228.56,1619.49C1225.15,1617.43 1221.01,1615.06 1216.39,1612.54L1201.96,1626.98L1163.49,1588.51C1156.85,1586.29 1150.74,1584.73 1145.67,1584.16L1145.67,1418.7Z" style="fill:rgb(2,6,23);"/>
                            </g>
                            <g id="Levá-strana" serif:id="Levá strana">
                                <path id="Křídlo2-21" serif:id="Křídlo2 2" d="M893.161,1815.79C1016.08,1777.54 1131.63,1814.28 1228.56,2044.46L1228.56,2201.47C1169.03,2180.69 1031.09,2122.99 890.8,1961.88C864.09,1927.12 822.013,1897.16 774.79,1874.1C828.638,1842.14 893.161,1815.79 893.161,1815.79Z" style="fill:rgb(30,64,175);"/>
                                <path id="Křídlo2-11" serif:id="Křídlo2 1" d="M774.79,1874.1C702.427,1838.77 617.98,1819.63 558.223,1824.18C558.379,1823.72 558.534,1823.26 558.691,1822.8C597.065,1709.13 669.5,1596.61 742.576,1505.03C821.708,1405.86 901.591,1331.26 939.795,1306.4C928.743,1341.12 919.883,1375.73 912.955,1413.73C902.136,1473.07 896.031,1540.67 893.649,1629.83C892.225,1683.15 892.133,1744.19 893.161,1815.79C893.161,1815.79 828.638,1842.14 774.79,1874.1Z" style="fill:rgb(29,78,216);"/>
                                <g id="Křídlo11" serif:id="Křídlo1" transform="matrix(1,0,0,1,0.323165,-0.196668)">
                                    <path d="M1228.23,1753.92L1228.23,1948.99C1182,1818.5 1047.45,1740.68 937.543,1766.85C930.994,1727.53 935.309,1554.2 958.252,1439.49C987.575,1506.18 1013.54,1567.11 1079.47,1605.33C1163.18,1653.84 1193.12,1690.19 1228.23,1753.92Z" style="fill:rgb(30,41,59);"/>
                                </g>
                                <path id="Hlava1" serif:id="Hlava" d="M1145.67,1418.7L1187.11,1513.19L1228.56,1513.19L1228.56,1619.49C1225.15,1617.43 1221.01,1615.06 1216.39,1612.54L1201.96,1626.98L1163.49,1588.51C1156.85,1586.29 1150.74,1584.73 1145.67,1584.16L1145.67,1418.7Z" style="fill:rgb(15,23,42);"/>
                            </g>
                        </g>
                    </g>
                </g>
            </g>
        </g>
    </g>
</svg>
