<svg id="Vrstva_1" data-name="Vrstva 1" xmlns="http://www.w3.org/2000/svg" viewBox="0 0 431.38 84.89"><defs><style>.cls-1{fill:#9974f9;}</style></defs><path class="cls-1" d="M171.78,411.27l-42.19,42.19a8.53,8.53,0,0,1-12.06,0L99.46,435.38a8.52,8.52,0,0,1,12.05-12.05l12,12.05,30.18-30.13-12-12.06A8.52,8.52,0,1,1,153.5,380.9l.24.24,18.08,18.08A8.53,8.53,0,0,1,171.78,411.27Z" transform="translate(-59.7 -375.65)"/><path class="cls-1" d="M62.19,420.31l42.2-42.19a8.53,8.53,0,0,1,12,0l18.07,18.09a8.53,8.53,0,0,1-11.81,12.3l-.24-.24-12-12.06L80.27,426.34l12,12.06a8.52,8.52,0,0,1-12,12l-18.08-18a8.53,8.53,0,0,1,0-12.06Z" transform="translate(-59.7 -375.65)"/><path class="cls-1" d="M204.79,401.61v10.66h20.53v12.17H204.79v20.3H192.15v-55.3h33.57v12.17Z" transform="translate(-59.7 -375.65)"/><path class="cls-1" d="M230.46,387.07h11.85v57.67H230.46Z" transform="translate(-59.7 -375.65)"/><path class="cls-1" d="M289.16,405.24v39.5H277.31V441c-2.61,3-6.48,4.81-11.77,4.81-10.35,0-18.88-9.08-18.88-20.85s8.53-20.85,18.88-20.85c5.29,0,9.16,1.81,11.77,4.81v-3.71ZM277.31,425c0-5.92-3.95-9.64-9.4-9.64s-9.41,3.72-9.41,9.64,4,9.64,9.41,9.64S277.31,430.92,277.31,425Z" transform="translate(-59.7 -375.65)"/><path class="cls-1" d="M294.29,394.66a7.11,7.11,0,1,1,7.11,7.11A7.18,7.18,0,0,1,294.29,394.66Zm1.19,10.58h11.85v39.5H295.48Z" transform="translate(-59.7 -375.65)"/><path class="cls-1" d="M337.34,404.45v13.43c-4.89-.79-11.84,1.19-11.84,9v17.85H313.65v-39.5H325.5v7C327.08,407,332.37,404.45,337.34,404.45Z" transform="translate(-59.7 -375.65)"/><path class="cls-1" d="M340.51,387.07h11.85v57.67H340.51Z" transform="translate(-59.7 -375.65)"/><path class="cls-1" d="M378.74,435.26a10.29,10.29,0,0,0,7.58-3l9.48,5.45c-3.87,5.37-9.71,8.13-17.22,8.13-13.51,0-21.88-9.08-21.88-20.85s8.53-20.85,21-20.85c11.54,0,20.07,8.92,20.07,20.85a22.67,22.67,0,0,1-.48,4.74h-28C370.76,433.84,374.4,435.26,378.74,435.26ZM386,420.88c-1.27-4.58-4.82-6.24-8.38-6.24-4.5,0-7.5,2.21-8.61,6.24Z" transform="translate(-59.7 -375.65)"/><path class="cls-1" d="M442.25,405.24v39.5H430.41V441c-2.61,3-6.48,4.81-11.77,4.81-10.35,0-18.88-9.08-18.88-20.85s8.53-20.85,18.88-20.85c5.29,0,9.16,1.81,11.77,4.81v-3.71ZM430.41,425c0-5.92-4-9.64-9.41-9.64s-9.4,3.72-9.4,9.64,3.95,9.64,9.4,9.64S430.41,430.92,430.41,425Z" transform="translate(-59.7 -375.65)"/><path class="cls-1" d="M491.08,425c0,11.77-8.54,20.85-18.88,20.85-5.3,0-9.17-1.81-11.77-4.81v19.51H448.58v-55.3h11.85V409c2.6-3,6.47-4.81,11.77-4.81C482.54,404.14,491.08,413.22,491.08,425Zm-11.85,0c0-5.92-4-9.64-9.4-9.64s-9.4,3.72-9.4,9.64,3.95,9.64,9.4,9.64S479.23,430.92,479.23,425Z" transform="translate(-59.7 -375.65)"/></svg>