<svg id="Vrstva_1" data-name="Vrstva 1" xmlns="http://www.w3.org/2000/svg" viewBox="0 0 187.21 43.26"><defs><style>.cls-1{fill:#1b181c;}.cls-2{fill:#eb6118;}.cls-3{fill:#1a171b;}</style></defs><path id="Path_1" data-name="Path 1" class="cls-1" d="M281.45,365.71a6.29,6.29,0,0,0-1.2-3.7L276,357l0,21.09a2.85,2.85,0,0,1,0,.5c0,1.14-.36,1.27-.95.41,0,0-.05-.07-.05-.09a6.44,6.44,0,0,0-.61-.77,22.63,22.63,0,0,0-3-2.27,38.88,38.88,0,0,1-4.95-3.7,13.11,13.11,0,0,1-3.43-5.4l-6.52,5.34a12.71,12.71,0,0,0,3.42,6,18.12,18.12,0,0,0,5.26,3.65,10.17,10.17,0,0,1,3.58,2.38,9.87,9.87,0,0,1,1.54,3.26h10.58l-3.93-5.21c-.5-.8-.29-1.23.66-1.25h18.69l-5.36-6.39h-9.45Z" transform="translate(-243.71 -357)"/><path id="Path_2" data-name="Path 2" class="cls-2" d="M290.59,400.26,285,392.8H265.64a13.36,13.36,0,0,0-1.91-3.81,8.9,8.9,0,0,0-3.6-2.61,16.84,16.84,0,0,1-5.26-3.51,11.6,11.6,0,0,1-3.43-6.62l0-.14-7.75,6.35a19.18,19.18,0,0,0,4,6.49,17,17,0,0,0,5.22,4.12,10.47,10.47,0,0,1,3.9,2.95,14.48,14.48,0,0,1,2.36,4.24Z" transform="translate(-243.71 -357)"/><path class="cls-3" d="M321.24,370.9v19.5h-3.92v-8.3H309v8.3h-3.91V370.9H309v8h8.35v-8Z" transform="translate(-243.71 -357)"/><path class="cls-3" d="M338.67,383.83H327.36a3.83,3.83,0,0,0,1.17,2.63,3.64,3.64,0,0,0,2.54,1,3.18,3.18,0,0,0,3.1-1.87h4.22a7,7,0,0,1-2.57,3.67,7.48,7.48,0,0,1-4.66,1.44,8.08,8.08,0,0,1-4-1,6.94,6.94,0,0,1-2.77-2.81,9.47,9.47,0,0,1,0-8.41,6.8,6.8,0,0,1,2.73-2.79,8.16,8.16,0,0,1,4.06-1,8,8,0,0,1,3.95.95,6.68,6.68,0,0,1,2.71,2.69,8.23,8.23,0,0,1,1,4A8.56,8.56,0,0,1,338.67,383.83Zm-3.94-2.62a3.06,3.06,0,0,0-1.09-2.42,3.82,3.82,0,0,0-2.6-.91,3.54,3.54,0,0,0-2.44.88,3.89,3.89,0,0,0-1.22,2.45Z" transform="translate(-243.71 -357)"/><path class="cls-3" d="M344.85,369.72V390.4h-3.91V369.72Z" transform="translate(-243.71 -357)"/><path class="cls-3" d="M354,375.38a6.39,6.39,0,0,1,3-.71,6.7,6.7,0,0,1,3.59,1,6.88,6.88,0,0,1,2.55,2.78,9,9,0,0,1,.93,4.17,9.16,9.16,0,0,1-.93,4.21,7.18,7.18,0,0,1-2.55,2.84,6.63,6.63,0,0,1-3.59,1,6.18,6.18,0,0,1-3-.7,6.31,6.31,0,0,1-2.11-1.76v9.59H348V374.92h3.91v2.23A6,6,0,0,1,354,375.38Zm5.53,4.81a3.89,3.89,0,0,0-1.51-1.55,4,4,0,0,0-4,0,4,4,0,0,0-1.51,1.58,5.46,5.46,0,0,0,0,4.86,4,4,0,0,0,1.51,1.58,3.93,3.93,0,0,0,2,.54,3.88,3.88,0,0,0,2-.55,4.16,4.16,0,0,0,1.51-1.6,5,5,0,0,0,.58-2.46A4.86,4.86,0,0,0,359.53,380.19Z" transform="translate(-243.71 -357)"/><path class="cls-3" d="M378.48,372.1a8.55,8.55,0,0,1,3.6,3.42,10.18,10.18,0,0,1,1.28,5.16,10,10,0,0,1-1.28,5.12,8.57,8.57,0,0,1-3.6,3.4,11.69,11.69,0,0,1-5.41,1.2h-6.82V370.9h6.82A11.69,11.69,0,0,1,378.48,372.1Zm-.8,13.3a6.38,6.38,0,0,0,1.68-4.72,6.55,6.55,0,0,0-1.68-4.77,6.34,6.34,0,0,0-4.75-1.72h-2.76v12.88h2.76A6.4,6.4,0,0,0,377.68,385.4Z" transform="translate(-243.71 -357)"/><path class="cls-3" d="M399.87,383.83H388.55a3.88,3.88,0,0,0,1.18,2.63,3.62,3.62,0,0,0,2.54,1,3.19,3.19,0,0,0,3.1-1.87h4.22a7,7,0,0,1-2.57,3.67,7.51,7.51,0,0,1-4.67,1.44,8.11,8.11,0,0,1-4-1,7,7,0,0,1-2.76-2.81,8.62,8.62,0,0,1-1-4.19,8.79,8.79,0,0,1,1-4.22,6.82,6.82,0,0,1,2.74-2.79,8.79,8.79,0,0,1,8,0,6.68,6.68,0,0,1,2.71,2.69,8.23,8.23,0,0,1,1,4A9.71,9.71,0,0,1,399.87,383.83Zm-3.94-2.62a3.09,3.09,0,0,0-1.09-2.42,3.84,3.84,0,0,0-2.6-.91,3.52,3.52,0,0,0-2.44.88,3.84,3.84,0,0,0-1.22,2.45Z" transform="translate(-243.71 -357)"/><path class="cls-3" d="M404.65,390a6.08,6.08,0,0,1-2.39-1.86,4.72,4.72,0,0,1-1-2.6h3.94a2.14,2.14,0,0,0,.89,1.48,3.06,3.06,0,0,0,1.91.59,3,3,0,0,0,1.75-.45,1.37,1.37,0,0,0,.62-1.15,1.2,1.2,0,0,0-.76-1.13,15.14,15.14,0,0,0-2.45-.82,21,21,0,0,1-2.84-.87,5,5,0,0,1-1.9-1.37,3.66,3.66,0,0,1-.79-2.48,4,4,0,0,1,.74-2.35,4.94,4.94,0,0,1,2.12-1.68,8,8,0,0,1,3.26-.61,6.65,6.65,0,0,1,4.41,1.38,5.12,5.12,0,0,1,1.82,3.73h-3.75a2,2,0,0,0-.76-1.47,3.49,3.49,0,0,0-3.47-.15,1.24,1.24,0,0,0-.57,1.09,1.29,1.29,0,0,0,.78,1.19,12.17,12.17,0,0,0,2.43.82,20.51,20.51,0,0,1,2.77.87,4.89,4.89,0,0,1,1.88,1.38,3.77,3.77,0,0,1,.83,2.47,4.14,4.14,0,0,1-.74,2.41,4.86,4.86,0,0,1-2.13,1.66,8,8,0,0,1-3.22.6A8.24,8.24,0,0,1,404.65,390Z" transform="translate(-243.71 -357)"/><path class="cls-3" d="M425.83,390.4l-5.25-6.59v6.59h-3.92V369.72h3.92v11.77l5.19-6.57h5.09L424,382.69l6.87,7.71Z" transform="translate(-243.71 -357)"/></svg>