<svg id="Vrstva_1" data-name="Vrstva 1" xmlns="http://www.w3.org/2000/svg" viewBox="0 0 355.03 76.82"><defs><style>.cls-1{fill:#6c3bfb;}</style></defs><path class="cls-1" d="M125.53,354.06a16.29,16.29,0,0,1-7-5.32,14.63,14.63,0,0,1-2.77-8.5h13.11a6.35,6.35,0,0,0,1.94,4.28,6.21,6.21,0,0,0,4.32,1.48,6.77,6.77,0,0,0,4.32-1.26,4.19,4.19,0,0,0,1.58-3.49,4.15,4.15,0,0,0-1.26-3.1,10.13,10.13,0,0,0-3.09-2,49.86,49.86,0,0,0-5.22-1.8,56.25,56.25,0,0,1-8-3,14.73,14.73,0,0,1-5.33-4.46,12.44,12.44,0,0,1-2.23-7.71A13.25,13.25,0,0,1,121,308.09q5.11-4,13.32-4,8.35,0,13.46,4a14.31,14.31,0,0,1,5.47,11.13H139.93a5.18,5.18,0,0,0-1.8-3.86,6.36,6.36,0,0,0-4.24-1.4,5.3,5.3,0,0,0-3.6,1.19,4.57,4.57,0,0,0,.93,7.23,37.65,37.65,0,0,0,7.2,3,67.09,67.09,0,0,1,8,3.16,15.2,15.2,0,0,1,5.29,4.4,11.73,11.73,0,0,1,2.23,7.41,14.58,14.58,0,0,1-2.19,7.85,15.48,15.48,0,0,1-6.38,5.62,21.82,21.82,0,0,1-9.86,2.08A26,26,0,0,1,125.53,354.06Z" transform="translate(-115.74 -297.69)"/><path class="cls-1" d="M219.13,315.18l-10.87,40.18H194.65l-6.33-26.06-6.55,26.06H168.23l-10.94-40.18H169.6l5.69,28.73,6.76-28.73h13l6.84,28.59,5.61-28.59Z" transform="translate(-115.74 -297.69)"/><path class="cls-1" d="M224.71,309.1a6.2,6.2,0,0,1-2.05-4.72,6.27,6.27,0,0,1,2.05-4.78,7.45,7.45,0,0,1,5.3-1.91,7.34,7.34,0,0,1,5.22,1.91,6.27,6.27,0,0,1,2.05,4.78,6.2,6.2,0,0,1-2.05,4.72A7.38,7.38,0,0,1,230,311,7.5,7.5,0,0,1,224.71,309.1Zm11.42,6.08v40.18H223.81V315.18Z" transform="translate(-115.74 -297.69)"/><path class="cls-1" d="M265.21,325.41h-6.62v29.95H246.28V325.41h-4.47V315.18h4.47V314q0-7.41,4.25-11.27T263,298.91c.91,0,1.59,0,2,.07v10.44q-3.53-.21-5,1c-1,.82-1.44,2.28-1.44,4.39v.36h6.62Z" transform="translate(-115.74 -297.69)"/><path class="cls-1" d="M293.37,344.92v10.44H287.1q-6.69,0-10.44-3.28t-3.74-10.69v-16H268V315.18h4.9v-9.79h12.31v9.79h8.06v10.23h-8.06v16.13a3.39,3.39,0,0,0,.86,2.59,4.22,4.22,0,0,0,2.88.79Z" transform="translate(-115.74 -297.69)"/><path class="cls-1" d="M317.48,316.34a15.21,15.21,0,0,1,7.42-1.73,16.64,16.64,0,0,1,9,2.52,17.44,17.44,0,0,1,6.37,7.2,24,24,0,0,1,2.34,10.87,24.26,24.26,0,0,1-2.34,10.91,17.64,17.64,0,0,1-6.37,7.27,16.51,16.51,0,0,1-9,2.56,15.35,15.35,0,0,1-7.38-1.73,13.43,13.43,0,0,1-5-4.47v24.77H300.2V315.18h12.32v5.69A13.34,13.34,0,0,1,317.48,316.34Zm10,11.62a8.46,8.46,0,0,0-6.3-2.62A8.28,8.28,0,0,0,315,328a11.6,11.6,0,0,0,0,14.54,8.61,8.61,0,0,0,12.49,0,10.11,10.11,0,0,0,2.59-7.31A10,10,0,0,0,327.53,328Z" transform="translate(-115.74 -297.69)"/><path class="cls-1" d="M349,324.33a17.51,17.51,0,0,1,6.37-7.2,16.64,16.64,0,0,1,9-2.52,15.39,15.39,0,0,1,7.46,1.73,12.74,12.74,0,0,1,4.93,4.53v-5.69h12.31v40.18H376.74v-5.69a13.34,13.34,0,0,1-5,4.54,15.53,15.53,0,0,1-7.46,1.73,16.39,16.39,0,0,1-8.93-2.56,17.71,17.71,0,0,1-6.37-7.27,24.26,24.26,0,0,1-2.34-10.91A24,24,0,0,1,349,324.33Zm25.2,3.67a8.66,8.66,0,0,0-12.45,0,9.94,9.94,0,0,0-2.56,7.24,10.18,10.18,0,0,0,2.56,7.31,8.56,8.56,0,0,0,12.45,0,11.6,11.6,0,0,0,0-14.54Z" transform="translate(-115.74 -297.69)"/><path class="cls-1" d="M405,354.14a16.07,16.07,0,0,1-6.48-4.94,12.94,12.94,0,0,1-2.66-7H408a4.67,4.67,0,0,0,1.94,3.39,6.9,6.9,0,0,0,4.25,1.29,6.06,6.06,0,0,0,3.56-.9,2.76,2.76,0,0,0,1.26-2.34,2.69,2.69,0,0,0-1.8-2.55,36.17,36.17,0,0,0-5.83-1.84,55.12,55.12,0,0,1-7.2-2.12,12.48,12.48,0,0,1-5-3.53,9.63,9.63,0,0,1-2.09-6.52,11.1,11.1,0,0,1,1.91-6.3,12.94,12.94,0,0,1,5.62-4.5,21.56,21.56,0,0,1,8.82-1.65q7.56,0,11.91,3.74a14.55,14.55,0,0,1,5,9.94H419a4.88,4.88,0,0,0-1.83-3.31,6.37,6.37,0,0,0-4.07-1.23,5.61,5.61,0,0,0-3.31.83,2.65,2.65,0,0,0-1.16,2.27,2.78,2.78,0,0,0,1.84,2.59,29.28,29.28,0,0,0,5.72,1.73,62.24,62.24,0,0,1,7.28,2.27,12.5,12.5,0,0,1,4.93,3.6,10.2,10.2,0,0,1,2.19,6.66,10.58,10.58,0,0,1-2,6.3,13.09,13.09,0,0,1-5.68,4.35,21.75,21.75,0,0,1-8.61,1.59A23.12,23.12,0,0,1,405,354.14Z" transform="translate(-115.74 -297.69)"/><path class="cls-1" d="M445.14,354.14a15.93,15.93,0,0,1-6.48-4.94,12.87,12.87,0,0,1-2.67-7h12.17a4.69,4.69,0,0,0,1.95,3.39,6.87,6.87,0,0,0,4.24,1.29,6.08,6.08,0,0,0,3.57-.9,2.76,2.76,0,0,0,1.26-2.34,2.69,2.69,0,0,0-1.8-2.55,36.52,36.52,0,0,0-5.83-1.84,54.66,54.66,0,0,1-7.2-2.12,12.41,12.41,0,0,1-5-3.53,9.58,9.58,0,0,1-2.09-6.52,11,11,0,0,1,1.91-6.3,12.91,12.91,0,0,1,5.61-4.5,21.59,21.59,0,0,1,8.82-1.65q7.56,0,11.92,3.74a14.59,14.59,0,0,1,5,9.94H459.18a4.89,4.89,0,0,0-1.84-3.31,6.35,6.35,0,0,0-4.07-1.23,5.64,5.64,0,0,0-3.31.83,2.64,2.64,0,0,0-1.15,2.27,2.77,2.77,0,0,0,1.84,2.59,29.28,29.28,0,0,0,5.72,1.73,62,62,0,0,1,7.27,2.27,12.43,12.43,0,0,1,4.93,3.6,10.15,10.15,0,0,1,2.2,6.66,10.58,10.58,0,0,1-2,6.3,13.12,13.12,0,0,1-5.69,4.35,21.67,21.67,0,0,1-8.6,1.59A23.05,23.05,0,0,1,445.14,354.14Z" transform="translate(-115.74 -297.69)"/></svg>